name ./resultDataOpenSim/trcMotMarkerGrf/sub09/grf-01-06.mot
datacolumns 19
datarows 27
range 0.96400000 1.06800000
endheader

                time	     ground_force_vx	     ground_force_vy	     ground_force_vz	     ground_force_px	     ground_force_py	     ground_force_pz	   l_ground_force_vx	   l_ground_force_vy	   l_ground_force_vz	   l_ground_force_px	   l_ground_force_py	   l_ground_force_pz	     ground_torque_x	     ground_torque_y	     ground_torque_z	   l_ground_torque_x	   l_ground_torque_y	   l_ground_torque_z	
          0.96400000	          0.00000000	          0.00000000	          0.00000000	          0.00000000	          0.00000000	          0.00000000	          2.50517242	        470.92920723	         12.01366469	          0.14164144	          0.00000000	         -0.00224907	          0.00000000	          0.00000000	          0.00000000	          0.00000000	         -1.45975906	          0.00000000	
          0.96800000	          0.00000000	          0.00000000	          0.00000000	          0.00000000	          0.00000000	          0.00000000	          5.38244986	        478.75187832	         13.07163487	          0.14185970	          0.00000000	         -0.00235284	          0.00000000	          0.00000000	          0.00000000	          0.00000000	         -1.59780311	          0.00000000	
          0.97200000	          0.00000000	          0.00000000	          0.00000000	          0.00000000	          0.00000000	          0.00000000	          8.44372561	        486.70394777	         14.34288571	          0.14223252	          0.00000000	         -0.00237998	          0.00000000	          0.00000000	          0.00000000	          0.00000000	         -1.73804676	          0.00000000	
          0.97600000	          0.00000000	          0.00000000	          0.00000000	          0.00000000	          0.00000000	          0.00000000	         11.68884101	        494.81742419	         15.73222132	          0.14274899	          0.00000000	         -0.00233696	          0.00000000	          0.00000000	          0.00000000	          0.00000000	         -1.88852565	          0.00000000	
          0.98000000	          0.00000000	          0.00000000	          0.00000000	          0.00000000	          0.00000000	          0.00000000	         15.12857381	        503.15665344	         17.08577396	          0.14335800	          0.00000000	         -0.00223581	          0.00000000	          0.00000000	          0.00000000	          0.00000000	         -2.06051827	          0.00000000	
          0.98400000	          0.00000000	          0.00000000	          0.00000000	          0.00000000	          0.00000000	          0.00000000	         18.78688803	        511.76611716	         18.21768919	          0.14400136	          0.00000000	         -0.00209563	          0.00000000	          0.00000000	          0.00000000	          0.00000000	         -2.26587498	          0.00000000	
          0.98800000	          0.00000000	          0.00000000	          0.00000000	          0.00000000	          0.00000000	          0.00000000	         22.68960501	        520.66873283	         18.95927925	          0.14462569	          0.00000000	         -0.00193864	          0.00000000	          0.00000000	          0.00000000	          0.00000000	         -2.51391466	          0.00000000	
          0.99200000	          0.00000000	          0.00000000	          0.00000000	          0.00000000	          0.00000000	          0.00000000	         26.84349066	        529.87451340	         19.21613077	          0.14518651	          0.00000000	         -0.00178496	          0.00000000	          0.00000000	          0.00000000	          0.00000000	         -2.80874628	          0.00000000	
          0.99600000	          0.00000000	          0.00000000	          0.00000000	          0.00000000	          0.00000000	          0.00000000	         31.23026550	        539.36425995	         18.98746951	          0.14564734	          0.00000000	         -0.00165273	          0.00000000	          0.00000000	          0.00000000	          0.00000000	         -3.14787221	          0.00000000	
          1.00000000	          0.00000000	          0.00000000	          0.00000000	          0.00000000	          0.00000000	          0.00000000	         35.82293847	        549.06257081	         18.35031978	          0.14600939	          0.00000000	         -0.00153316	          0.00000000	          0.00000000	          0.00000000	          0.00000000	         -3.52247064	          0.00000000	
          1.00400000	          0.00000000	          0.00000000	          0.00000000	          0.00000000	          0.00000000	          0.00000000	         40.60410013	        558.86095694	         17.43760782	          0.14632419	          0.00000000	         -0.00140013	          0.00000000	          0.00000000	          0.00000000	          0.00000000	         -3.91908886	          0.00000000	
          1.00800000	          0.00000000	          0.00000000	          0.00000000	          0.00000000	          0.00000000	          0.00000000	         45.57326363	        568.72380042	         16.40405375	          0.14669217	          0.00000000	         -0.00123197	          0.00000000	          0.00000000	          0.00000000	          0.00000000	         -4.32205934	          0.00000000	
          1.01200000	          0.00000000	          0.00000000	          0.00000000	          0.00000000	          0.00000000	          0.00000000	         50.73759299	        578.76002976	         15.38263603	          0.14718798	          0.00000000	         -0.00101595	          0.00000000	          0.00000000	          0.00000000	          0.00000000	         -4.71587879	          0.00000000	
          1.01600000	          0.00000000	          0.00000000	          0.00000000	          0.00000000	          0.00000000	          0.00000000	         56.09862777	        589.16218968	         14.46443138	          0.14782766	          0.00000000	         -0.00076044	          0.00000000	          0.00000000	          0.00000000	          0.00000000	         -5.08695881	          0.00000000	
          1.02000000	          0.00000000	          0.00000000	          0.00000000	          0.00000000	          0.00000000	          0.00000000	         61.65285309	        600.10951291	         13.70906088	          0.14855360	          0.00000000	         -0.00048446	          0.00000000	          0.00000000	          0.00000000	          0.00000000	         -5.42450770	          0.00000000	
          1.02400000	          0.00000000	          0.00000000	          0.00000000	          0.00000000	          0.00000000	          0.00000000	         67.39371137	        611.71840434	         13.16235468	          0.14927694	          0.00000000	         -0.00020588	          0.00000000	          0.00000000	          0.00000000	          0.00000000	         -5.72066284	          0.00000000	
          1.02800000	          0.00000000	          0.00000000	          0.00000000	          0.00000000	          0.00000000	          0.00000000	         73.29871108	        624.01023366	         12.86431084	          0.14990862	          0.00000000	          0.00005092	          0.00000000	          0.00000000	          0.00000000	          0.00000000	         -5.97015107	          0.00000000	
          1.03200000	          0.00000000	          0.00000000	          0.00000000	          0.00000000	          0.00000000	          0.00000000	         79.31226041	        636.89210033	         12.84329401	          0.15040602	          0.00000000	          0.00026629	          0.00000000	          0.00000000	          0.00000000	          0.00000000	         -6.16972735	          0.00000000	
          1.03600000	          0.00000000	          0.00000000	          0.00000000	          0.00000000	          0.00000000	          0.00000000	         85.34448772	        650.17761217	         13.10141740	          0.15078933	          0.00000000	          0.00044001	          0.00000000	          0.00000000	          0.00000000	          0.00000000	         -6.31759648	          0.00000000	
          1.04000000	          0.00000000	          0.00000000	          0.00000000	          0.00000000	          0.00000000	          0.00000000	         91.29027308	        663.63301830	         13.60848202	          0.15112699	          0.00000000	          0.00059317	          0.00000000	          0.00000000	          0.00000000	          0.00000000	         -6.41302650	          0.00000000	
          1.04400000	          0.00000000	          0.00000000	          0.00000000	          0.00000000	          0.00000000	          0.00000000	         97.04978780	        677.01398039	         14.31704503	          0.15149639	          0.00000000	          0.00074368	          0.00000000	          0.00000000	          0.00000000	          0.00000000	         -6.45632117	          0.00000000	
          1.04800000	          0.00000000	          0.00000000	          0.00000000	          0.00000000	          0.00000000	          0.00000000	        102.53565751	        690.09384427	         15.18051805	          0.15194436	          0.00000000	          0.00089778	          0.00000000	          0.00000000	          0.00000000	          0.00000000	         -6.44913253	          0.00000000	
          1.05200000	          0.00000000	          0.00000000	          0.00000000	          0.00000000	          0.00000000	          0.00000000	        107.67785519	        702.68393932	         16.14849833	          0.15247304	          0.00000000	          0.00105330	          0.00000000	          0.00000000	          0.00000000	          0.00000000	         -6.39484100	          0.00000000	
          1.05600000	          0.00000000	          0.00000000	          0.00000000	          0.00000000	          0.00000000	          0.00000000	        112.43581554	        714.62642226	         17.14812592	          0.15305348	          0.00000000	          0.00120230	          0.00000000	          0.00000000	          0.00000000	          0.00000000	         -6.29863336	          0.00000000	
          1.06000000	          0.00000000	          0.00000000	          0.00000000	          0.00000000	          0.00000000	          0.00000000	        116.80627013	        725.77360447	         18.08375127	          0.15364635	          0.00000000	          0.00133622	          0.00000000	          0.00000000	          0.00000000	          0.00000000	         -6.16708584	          0.00000000	
          1.06400000	          0.00000000	          0.00000000	          0.00000000	          0.00000000	          0.00000000	          0.00000000	        120.81758221	        735.97701493	         18.86658124	          0.15421994	          0.00000000	          0.00145380	          0.00000000	          0.00000000	          0.00000000	          0.00000000	         -6.00736872	          0.00000000	
          1.06800000	          0.00000000	          0.00000000	          0.00000000	          0.00000000	          0.00000000	          0.00000000	        124.51906370	        745.07367241	         19.44909576	          0.15476648	          0.00000000	          0.00156194	          0.00000000	          0.00000000	          0.00000000	          0.00000000	         -5.82638739	          0.00000000	
